<mxfile host="Electron" agent="Mozilla/5.0 (Windows NT 10.0; Win64; x64) AppleWebKit/537.36 (KHTML, like Gecko) draw.io/28.0.6 Chrome/138.0.7204.100 Electron/37.2.3 Safari/537.36" version="28.0.6">
  <diagram name="Página-1" id="IUVf_22T1R6Oy6z2aZXU">
    <mxGraphModel dx="983" dy="580" grid="0" gridSize="10" guides="1" tooltips="1" connect="1" arrows="1" fold="1" page="1" pageScale="1" pageWidth="827" pageHeight="1169" math="0" shadow="0">
      <root>
        <mxCell id="0" />
        <mxCell id="1" parent="0" />
        <mxCell id="pN1l8q_KHafZkuiuGcwA-3" value="Elaboración de cuadro de tiempos de navegación" style="shape=table;startSize=30;container=1;collapsible=0;childLayout=tableLayout;fixedRows=1;rowLines=0;fontStyle=0;strokeColor=default;fontSize=14;fontFamily=Times New Roman;" vertex="1" parent="1">
          <mxGeometry x="28" y="20" width="297" height="97" as="geometry" />
        </mxCell>
        <mxCell id="pN1l8q_KHafZkuiuGcwA-4" value="" style="shape=tableRow;horizontal=0;startSize=0;swimlaneHead=0;swimlaneBody=0;top=0;left=0;bottom=0;right=0;collapsible=0;dropTarget=0;fillColor=none;points=[[0,0.5],[1,0.5]];portConstraint=eastwest;strokeColor=inherit;fontSize=16;fontFamily=Times New Roman;" vertex="1" parent="pN1l8q_KHafZkuiuGcwA-3">
          <mxGeometry y="30" width="297" height="21" as="geometry" />
        </mxCell>
        <mxCell id="pN1l8q_KHafZkuiuGcwA-5" value="&lt;font style=&quot;font-size: 14px;&quot;&gt;Detalle&lt;/font&gt;&lt;div&gt;&lt;br&gt;&lt;/div&gt;" style="shape=partialRectangle;html=1;whiteSpace=wrap;connectable=0;fillColor=none;top=0;left=0;bottom=0;right=0;overflow=hidden;pointerEvents=1;strokeColor=inherit;fontSize=16;fontFamily=Times New Roman;" vertex="1" parent="pN1l8q_KHafZkuiuGcwA-4">
          <mxGeometry width="71" height="21" as="geometry">
            <mxRectangle width="71" height="21" as="alternateBounds" />
          </mxGeometry>
        </mxCell>
        <mxCell id="pN1l8q_KHafZkuiuGcwA-6" value="&lt;font style=&quot;font-size: 14px;&quot;&gt;Ciclo 01-2025&lt;/font&gt;" style="shape=partialRectangle;html=1;whiteSpace=wrap;connectable=0;fillColor=none;top=0;left=0;bottom=0;right=0;align=left;spacingLeft=6;overflow=hidden;strokeColor=inherit;fontSize=16;fontFamily=Times New Roman;" vertex="1" parent="pN1l8q_KHafZkuiuGcwA-4">
          <mxGeometry x="71" width="226" height="21" as="geometry">
            <mxRectangle width="226" height="21" as="alternateBounds" />
          </mxGeometry>
        </mxCell>
        <mxCell id="pN1l8q_KHafZkuiuGcwA-7" value="" style="shape=tableRow;horizontal=0;startSize=0;swimlaneHead=0;swimlaneBody=0;top=0;left=0;bottom=0;right=0;collapsible=0;dropTarget=0;fillColor=none;points=[[0,0.5],[1,0.5]];portConstraint=eastwest;strokeColor=inherit;fontSize=16;fontFamily=Times New Roman;" vertex="1" parent="pN1l8q_KHafZkuiuGcwA-3">
          <mxGeometry y="51" width="297" height="26" as="geometry" />
        </mxCell>
        <mxCell id="pN1l8q_KHafZkuiuGcwA-8" value="&lt;font style=&quot;font-size: 14px;&quot;&gt;Encargado&lt;/font&gt;" style="shape=partialRectangle;html=1;whiteSpace=wrap;connectable=0;fillColor=none;top=0;left=0;bottom=0;right=0;overflow=hidden;strokeColor=inherit;fontSize=16;fontFamily=Times New Roman;" vertex="1" parent="pN1l8q_KHafZkuiuGcwA-7">
          <mxGeometry width="71" height="26" as="geometry">
            <mxRectangle width="71" height="26" as="alternateBounds" />
          </mxGeometry>
        </mxCell>
        <mxCell id="pN1l8q_KHafZkuiuGcwA-9" value="&lt;span style=&quot;font-size: 14px;&quot;&gt;Luis Lemus y Mauricio Chinchilla&lt;/span&gt;" style="shape=partialRectangle;html=1;whiteSpace=wrap;connectable=0;fillColor=none;top=0;left=0;bottom=0;right=0;align=left;spacingLeft=6;overflow=hidden;strokeColor=inherit;fontSize=16;fontFamily=Times New Roman;" vertex="1" parent="pN1l8q_KHafZkuiuGcwA-7">
          <mxGeometry x="71" width="226" height="26" as="geometry">
            <mxRectangle width="226" height="26" as="alternateBounds" />
          </mxGeometry>
        </mxCell>
        <mxCell id="pN1l8q_KHafZkuiuGcwA-10" value="" style="shape=tableRow;horizontal=0;startSize=0;swimlaneHead=0;swimlaneBody=0;top=0;left=0;bottom=0;right=0;collapsible=0;dropTarget=0;fillColor=none;points=[[0,0.5],[1,0.5]];portConstraint=eastwest;strokeColor=inherit;fontSize=16;fontFamily=Times New Roman;" vertex="1" parent="pN1l8q_KHafZkuiuGcwA-3">
          <mxGeometry y="77" width="297" height="20" as="geometry" />
        </mxCell>
        <mxCell id="pN1l8q_KHafZkuiuGcwA-11" value="" style="shape=partialRectangle;html=1;whiteSpace=wrap;connectable=0;fillColor=none;top=0;left=0;bottom=0;right=0;overflow=hidden;strokeColor=inherit;fontSize=16;fontFamily=Times New Roman;" vertex="1" parent="pN1l8q_KHafZkuiuGcwA-10">
          <mxGeometry width="71" height="20" as="geometry">
            <mxRectangle width="71" height="20" as="alternateBounds" />
          </mxGeometry>
        </mxCell>
        <mxCell id="pN1l8q_KHafZkuiuGcwA-12" value="" style="shape=partialRectangle;html=1;whiteSpace=wrap;connectable=0;fillColor=none;top=0;left=0;bottom=0;right=0;align=left;spacingLeft=6;overflow=hidden;strokeColor=inherit;fontSize=16;fontFamily=Times New Roman;" vertex="1" parent="pN1l8q_KHafZkuiuGcwA-10">
          <mxGeometry x="71" width="226" height="20" as="geometry">
            <mxRectangle width="226" height="20" as="alternateBounds" />
          </mxGeometry>
        </mxCell>
        <mxCell id="pN1l8q_KHafZkuiuGcwA-15" value="" style="edgeStyle=orthogonalEdgeStyle;rounded=0;orthogonalLoop=1;jettySize=auto;html=1;" edge="1" parent="1" source="pN1l8q_KHafZkuiuGcwA-13" target="pN1l8q_KHafZkuiuGcwA-14">
          <mxGeometry relative="1" as="geometry" />
        </mxCell>
        <mxCell id="pN1l8q_KHafZkuiuGcwA-13" value="Crear el archivo de tiempos" style="rounded=0;whiteSpace=wrap;html=1;fillColor=#dae8fc;strokeColor=#6c8ebf;fontFamily=Times New Roman;fontSize=14;" vertex="1" parent="1">
          <mxGeometry x="354" y="171" width="120" height="48" as="geometry" />
        </mxCell>
        <mxCell id="pN1l8q_KHafZkuiuGcwA-17" value="" style="edgeStyle=orthogonalEdgeStyle;rounded=0;orthogonalLoop=1;jettySize=auto;html=1;" edge="1" parent="1" source="pN1l8q_KHafZkuiuGcwA-14" target="pN1l8q_KHafZkuiuGcwA-16">
          <mxGeometry relative="1" as="geometry" />
        </mxCell>
        <mxCell id="pN1l8q_KHafZkuiuGcwA-14" value="El área técnica revisa al inicio de ciclo la carga académica en el sistio Portal Empresarial, se realiza una revisión completa de todas las materias que se impartirán en el ciclo virtual" style="whiteSpace=wrap;html=1;fontSize=14;fontFamily=Times New Roman;rounded=0;" vertex="1" parent="1">
          <mxGeometry x="280" y="244" width="267.5" height="79" as="geometry" />
        </mxCell>
        <mxCell id="pN1l8q_KHafZkuiuGcwA-19" value="" style="edgeStyle=orthogonalEdgeStyle;rounded=0;orthogonalLoop=1;jettySize=auto;html=1;" edge="1" parent="1" source="pN1l8q_KHafZkuiuGcwA-16" target="pN1l8q_KHafZkuiuGcwA-18">
          <mxGeometry relative="1" as="geometry" />
        </mxCell>
        <mxCell id="pN1l8q_KHafZkuiuGcwA-21" style="edgeStyle=orthogonalEdgeStyle;rounded=0;orthogonalLoop=1;jettySize=auto;html=1;" edge="1" parent="1" source="pN1l8q_KHafZkuiuGcwA-16">
          <mxGeometry relative="1" as="geometry">
            <mxPoint x="209.41379310344837" y="520" as="targetPoint" />
          </mxGeometry>
        </mxCell>
        <mxCell id="pN1l8q_KHafZkuiuGcwA-16" value="¿actualización de docente?" style="rhombus;whiteSpace=wrap;html=1;fontSize=14;fontFamily=Times New Roman;rounded=0;" vertex="1" parent="1">
          <mxGeometry x="345.5" y="353" width="137" height="85" as="geometry" />
        </mxCell>
        <mxCell id="pN1l8q_KHafZkuiuGcwA-22" style="edgeStyle=orthogonalEdgeStyle;rounded=0;orthogonalLoop=1;jettySize=auto;html=1;" edge="1" parent="1" source="pN1l8q_KHafZkuiuGcwA-18">
          <mxGeometry relative="1" as="geometry">
            <mxPoint x="584.25" y="524.8275862068965" as="targetPoint" />
          </mxGeometry>
        </mxCell>
        <mxCell id="pN1l8q_KHafZkuiuGcwA-18" value="Actualizar&amp;nbsp;" style="whiteSpace=wrap;html=1;fontSize=14;fontFamily=Times New Roman;rounded=0;" vertex="1" parent="1">
          <mxGeometry x="547.5" y="447" width="73.5" height="32" as="geometry" />
        </mxCell>
        <mxCell id="pN1l8q_KHafZkuiuGcwA-20" value="SI" style="text;html=1;align=center;verticalAlign=middle;resizable=0;points=[];autosize=1;strokeColor=none;fillColor=none;" vertex="1" parent="1">
          <mxGeometry x="471" y="399" width="29" height="26" as="geometry" />
        </mxCell>
        <mxCell id="pN1l8q_KHafZkuiuGcwA-23" value="NO" style="text;html=1;align=center;verticalAlign=middle;resizable=0;points=[];autosize=1;strokeColor=none;fillColor=none;" vertex="1" parent="1">
          <mxGeometry x="323" y="394" width="36" height="26" as="geometry" />
        </mxCell>
        <mxCell id="pN1l8q_KHafZkuiuGcwA-31" value="" style="endArrow=none;html=1;rounded=0;" edge="1" parent="1">
          <mxGeometry width="50" height="50" relative="1" as="geometry">
            <mxPoint x="210" y="519" as="sourcePoint" />
            <mxPoint x="585" y="521" as="targetPoint" />
          </mxGeometry>
        </mxCell>
        <mxCell id="pN1l8q_KHafZkuiuGcwA-32" value="" style="endArrow=classic;html=1;rounded=0;entryX=0.5;entryY=0;entryDx=0;entryDy=0;" edge="1" parent="1" target="pN1l8q_KHafZkuiuGcwA-33">
          <mxGeometry width="50" height="50" relative="1" as="geometry">
            <mxPoint x="413.40999999999997" y="521" as="sourcePoint" />
            <mxPoint x="412" y="567" as="targetPoint" />
          </mxGeometry>
        </mxCell>
        <mxCell id="pN1l8q_KHafZkuiuGcwA-35" value="" style="edgeStyle=orthogonalEdgeStyle;rounded=0;orthogonalLoop=1;jettySize=auto;html=1;" edge="1" parent="1" source="pN1l8q_KHafZkuiuGcwA-33" target="pN1l8q_KHafZkuiuGcwA-34">
          <mxGeometry relative="1" as="geometry" />
        </mxCell>
        <mxCell id="pN1l8q_KHafZkuiuGcwA-33" value="Iniciando mes se deja un dato &quot;0&quot; en el archivo de Excel de los tiempos que indique que no hay acumulado para ninguna asignatura" style="rounded=0;whiteSpace=wrap;html=1;fontFamily=Times New Roman;" vertex="1" parent="1">
          <mxGeometry x="299" y="563" width="230" height="48" as="geometry" />
        </mxCell>
        <mxCell id="pN1l8q_KHafZkuiuGcwA-38" value="" style="edgeStyle=orthogonalEdgeStyle;rounded=0;orthogonalLoop=1;jettySize=auto;html=1;" edge="1" parent="1" source="pN1l8q_KHafZkuiuGcwA-34" target="pN1l8q_KHafZkuiuGcwA-37">
          <mxGeometry relative="1" as="geometry" />
        </mxCell>
        <mxCell id="pN1l8q_KHafZkuiuGcwA-34" value="La hoja del archivo de Excel que se recibe del Query se copia en el archivo de los tiempos" style="whiteSpace=wrap;html=1;fontFamily=Times New Roman;rounded=0;" vertex="1" parent="1">
          <mxGeometry x="327.25" y="644" width="173.5" height="53" as="geometry" />
        </mxCell>
        <mxCell id="pN1l8q_KHafZkuiuGcwA-40" value="" style="edgeStyle=orthogonalEdgeStyle;rounded=0;orthogonalLoop=1;jettySize=auto;html=1;" edge="1" parent="1" source="pN1l8q_KHafZkuiuGcwA-37" target="pN1l8q_KHafZkuiuGcwA-39">
          <mxGeometry relative="1" as="geometry" />
        </mxCell>
        <mxCell id="pN1l8q_KHafZkuiuGcwA-37" value="En el archivo de tiempos de Excel en la hoja semanal apa cada una de las facultades se busca el nombre y código de asignatura en la hoja del query y nos da el tiempo de esa semana&amp;nbsp;" style="whiteSpace=wrap;html=1;fontFamily=Times New Roman;rounded=0;" vertex="1" parent="1">
          <mxGeometry x="298" y="730" width="231" height="76" as="geometry" />
        </mxCell>
        <mxCell id="pN1l8q_KHafZkuiuGcwA-42" value="" style="edgeStyle=orthogonalEdgeStyle;rounded=0;orthogonalLoop=1;jettySize=auto;html=1;" edge="1" parent="1" source="pN1l8q_KHafZkuiuGcwA-39" target="pN1l8q_KHafZkuiuGcwA-41">
          <mxGeometry relative="1" as="geometry" />
        </mxCell>
        <mxCell id="pN1l8q_KHafZkuiuGcwA-39" value="Se revisa el tiempo externo en el portal empresarial: Registro académico/Educación Virtual/Resumen navegación externa para agregarlo al cuadro de tiempo de cada asignatura" style="whiteSpace=wrap;html=1;fontFamily=Times New Roman;rounded=0;" vertex="1" parent="1">
          <mxGeometry x="301" y="839" width="225" height="69" as="geometry" />
        </mxCell>
        <mxCell id="pN1l8q_KHafZkuiuGcwA-44" value="" style="edgeStyle=orthogonalEdgeStyle;rounded=0;orthogonalLoop=1;jettySize=auto;html=1;" edge="1" parent="1" source="pN1l8q_KHafZkuiuGcwA-41" target="pN1l8q_KHafZkuiuGcwA-43">
          <mxGeometry relative="1" as="geometry" />
        </mxCell>
        <mxCell id="pN1l8q_KHafZkuiuGcwA-41" value="Para las semanas posteriores se suma el tiempo de las semanas anteriores acumulándose el dato" style="whiteSpace=wrap;html=1;fontFamily=Times New Roman;rounded=0;" vertex="1" parent="1">
          <mxGeometry x="340" y="941" width="147" height="60" as="geometry" />
        </mxCell>
        <mxCell id="pN1l8q_KHafZkuiuGcwA-43" value="El archivo de Excel de los tiempos, la hoja Reporte Mensual (ACUMULADO) se convierte en pdf, posteriormente se remite a la dirección de educación virtual" style="whiteSpace=wrap;html=1;fontFamily=Times New Roman;rounded=0;" vertex="1" parent="1">
          <mxGeometry x="323" y="1031" width="181" height="76" as="geometry" />
        </mxCell>
      </root>
    </mxGraphModel>
  </diagram>
</mxfile>
